<svg xmlns="http://www.w3.org/2000/svg" viewBox="0 0 512 512" role="img" aria-labelledby="title desc">
  <title id="title">百变脸相机 Logo 方案三</title>
  <desc id="desc">一个从镜头中探头出来的可爱变脸角色。</desc>
  <defs>
    <radialGradient id="bg3" cx="50%" cy="38%" r="75%">
      <stop offset="0%" stop-color="#2C405D"/>
      <stop offset="100%" stop-color="#101723"/>
    </radialGradient>
    <linearGradient id="ring" x1="0" y1="0" x2="1" y2="1">
      <stop offset="0%" stop-color="#93FFE2"/>
      <stop offset="100%" stop-color="#7DBEFF"/>
    </linearGradient>
    <filter id="shadow3" x="-30%" y="-30%" width="160%" height="160%">
      <feDropShadow dx="0" dy="18" stdDeviation="16" flood-color="#03070D" flood-opacity=".35"/>
    </filter>
  </defs>

  <rect x="24" y="24" width="464" height="464" rx="136" fill="url(#bg3)"/>
  <g filter="url(#shadow3)">
    <circle cx="256" cy="266" r="148" fill="#182435"/>
    <circle cx="256" cy="266" r="128" fill="#0B1019" stroke="url(#ring)" stroke-width="18"/>
    <circle cx="256" cy="266" r="92" fill="#121C29"/>
    <circle cx="256" cy="266" r="66" fill="#1C2D45"/>
    <circle cx="256" cy="266" r="40" fill="#7FDBFF"/>

    <path d="M147 176c0-32 26-58 58-58h103c32 0 58 26 58 58v101c0 58-47 105-105 105h-9c-58 0-105-47-105-105V176z" fill="#FFF7EF"/>
    <path d="M147 201c0-46 38-84 84-84h47c46 0 84 38 84 84v29c-17-11-35-17-56-17-16 0-32 4-49 13-16-9-32-13-49-13-21 0-39 6-61 18v-30z" fill="#FFC8B5"/>
    <ellipse cx="212" cy="245" rx="24" ry="28" fill="#111826"/>
    <ellipse cx="301" cy="245" rx="24" ry="28" fill="#111826"/>
    <circle cx="203" cy="237" r="7" fill="#FFFFFF"/>
    <circle cx="292" cy="237" r="7" fill="#FFFFFF"/>
    <path d="M227 311c18 13 42 13 60 0" fill="none" stroke="#111826" stroke-width="14" stroke-linecap="round"/>
    <circle cx="171" cy="299" r="16" fill="#FF91B5" opacity=".45"/>
    <circle cx="341" cy="299" r="16" fill="#FF91B5" opacity=".45"/>
  </g>

  <g transform="translate(124 134) rotate(-18)">
    <path d="M0 18l18-18 18 18-18 18z" fill="#FFB16E"/>
    <path d="M74 0h32v32H74z" fill="#90FFE1"/>
  </g>
  <g transform="translate(390 136)">
    <path d="M0-18l5 13 13 5-13 5-5 13-5-13-13-5 13-5z" fill="#FFF0A1"/>
  </g>
</svg>
