<svg xmlns="http://www.w3.org/2000/svg" viewBox="0 0 512 512" role="img" aria-labelledby="title desc">
  <title id="title">百变脸相机 Logo 方案二</title>
  <desc id="desc">一个由四种变脸模式组成的可爱头像图标。</desc>
  <defs>
    <linearGradient id="bg2" x1="0" y1="0" x2="1" y2="1">
      <stop offset="0%" stop-color="#101724"/>
      <stop offset="100%" stop-color="#25354D"/>
    </linearGradient>
    <filter id="shadow2" x="-20%" y="-20%" width="140%" height="140%">
      <feDropShadow dx="0" dy="18" stdDeviation="18" flood-color="#091019" flood-opacity=".28"/>
    </filter>
  </defs>

  <rect x="24" y="24" width="464" height="464" rx="132" fill="url(#bg2)"/>
  <circle cx="133" cy="113" r="56" fill="#FF7C9F" opacity=".16"/>
  <circle cx="401" cy="385" r="66" fill="#93FFE0" opacity=".15"/>

  <g filter="url(#shadow2)">
    <rect x="100" y="92" width="312" height="328" rx="110" fill="#FFF7EE"/>
    <path d="M128 215c0-51 41-92 92-92h72c51 0 92 41 92 92v96c0 43-35 78-78 78H206c-43 0-78-35-78-78v-96z" fill="#FFF2E8"/>

    <clipPath id="faceClip">
      <rect x="128" y="123" width="256" height="266" rx="90"/>
    </clipPath>

    <g clip-path="url(#faceClip)">
      <rect x="128" y="123" width="128" height="133" fill="#FFBEA6"/>
      <rect x="256" y="123" width="128" height="133" fill="#9FE5FF"/>
      <rect x="128" y="256" width="128" height="133" fill="#FF84B5"/>
      <rect x="256" y="256" width="128" height="133" fill="#98FFD9"/>

      <path d="M146 136h94v94h-94zM146 230h94v94h-94z" fill="none" stroke="#FFF8F1" stroke-width="8" opacity=".75"/>
      <path d="M167 157h52M167 183h52M167 209h52M193 131v94" stroke="#FFF8F1" stroke-width="7" stroke-linecap="round" opacity=".9"/>

      <path d="M320 125l31 53-31 53-31-53z" fill="none" stroke="#F3FBFF" stroke-width="10" stroke-linejoin="round"/>
      <path d="M319 259c35 0 57 19 57 50s-22 50-57 50-57-19-57-50 22-50 57-50z" fill="none" stroke="#FFF4FA" stroke-width="10"/>
      <path d="M321 266c12 0 22 10 22 22s-10 22-22 22-22-10-22-22 10-22 22-22z" fill="#FFF4FA" opacity=".8"/>
      <path d="M319 255l33 108" stroke="#E7FFF8" stroke-width="10" stroke-linecap="round"/>
    </g>

    <path d="M184 214c11-10 23-15 38-15 15 0 27 5 38 15M289 214c11-10 23-15 38-15 15 0 27 5 38 15" fill="none" stroke="#111826" stroke-width="8" stroke-linecap="round"/>
    <circle cx="203" cy="251" r="15" fill="#111826"/>
    <circle cx="309" cy="251" r="15" fill="#111826"/>
    <path d="M205 327c31 19 70 19 102 0" fill="none" stroke="#111826" stroke-width="15" stroke-linecap="round"/>
    <circle cx="171" cy="302" r="19" fill="#FF96B4" opacity=".45"/>
    <circle cx="339" cy="302" r="19" fill="#FF96B4" opacity=".45"/>
  </g>
</svg>
